<?xml version="1.0" encoding="UTF-8" standalone="no"?>
<svg
   xmlns:dc="http://purl.org/dc/elements/1.1/"
   xmlns:cc="http://creativecommons.org/ns#"
   xmlns:rdf="http://www.w3.org/1999/02/22-rdf-syntax-ns#"
   xmlns:svg="http://www.w3.org/2000/svg"
   xmlns="http://www.w3.org/2000/svg"
   viewBox="0 0 793.70667 1122.52"
   height="1122.52"
   width="793.70667"
   xml:space="preserve"
   id="svg2"
   version="1.1"><metadata
     id="metadata8"><rdf:RDF><cc:Work
         rdf:about=""><dc:format>image/svg+xml</dc:format><dc:type
           rdf:resource="http://purl.org/dc/dcmitype/StillImage" /></cc:Work></rdf:RDF></metadata><defs
     id="defs6"><clipPath
       id="clipPath18"
       clipPathUnits="userSpaceOnUse"><path
         id="path16"
         d="M 0,841.89 H 595.28 V 0 H 0 Z" /></clipPath></defs><g
     transform="matrix(1.3333333,0,0,-1.3333333,0,1122.52)"
     id="g10"><g
       id="g12"><g
         clip-path="url(#clipPath18)"
         id="g14"><g
           transform="translate(128.207,524.6377)"
           id="g20"><path
             id="path22"
             style="fill:#7ab2e1;fill-opacity:1;fill-rule:nonzero;stroke:none"
             d="m 0,0 c 0,-2.318 -1.878,-4.195 -4.196,-4.195 -2.317,0 -4.193,1.877 -4.193,4.195 0,2.316 1.876,4.194 4.193,4.194 C -1.878,4.194 0,2.316 0,0" /></g><g
           transform="translate(128.207,511.8398)"
           id="g24"><path
             id="path26"
             style="fill:#7ab2e1;fill-opacity:1;fill-rule:nonzero;stroke:none"
             d="m 0,0 c 0,-2.314 -1.878,-4.192 -4.196,-4.192 -2.317,0 -4.193,1.878 -4.193,4.192 0,2.318 1.876,4.197 4.193,4.197 C -1.878,4.197 0,2.318 0,0" /></g><g
           transform="translate(115.3984,511.8398)"
           id="g28"><path
             id="path30"
             style="fill:#004b93;fill-opacity:1;fill-rule:nonzero;stroke:none"
             d="m 0,0 c 0,-2.314 -1.877,-4.192 -4.195,-4.192 -2.316,0 -4.195,1.878 -4.195,4.192 0,2.318 1.879,4.197 4.195,4.197 C -1.877,4.197 0,2.318 0,0" /></g><g
           transform="translate(141.0244,511.8398)"
           id="g32"><path
             id="path34"
             style="fill:#7ab2e1;fill-opacity:1;fill-rule:nonzero;stroke:none"
             d="m 0,0 c 0,-2.314 -1.879,-4.192 -4.195,-4.192 -2.317,0 -4.195,1.878 -4.195,4.192 0,2.318 1.878,4.197 4.195,4.197 C -1.879,4.197 0,2.318 0,0" /></g><g
           transform="translate(128.207,499.019)"
           id="g36"><path
             id="path38"
             style="fill:#7ab2e1;fill-opacity:1;fill-rule:nonzero;stroke:none"
             d="m 0,0 c 0,-2.316 -1.878,-4.192 -4.196,-4.192 -2.317,0 -4.193,1.876 -4.193,4.192 0,2.316 1.876,4.198 4.193,4.198 C -1.878,4.198 0,2.316 0,0" /></g><g
           transform="translate(161.7944,507.6372)"
           id="g40"><path
             id="path42"
             style="fill:#004b93;fill-opacity:1;fill-rule:nonzero;stroke:none"
             d="M 0,0 V 6.042 H -7.782 V 0 h -1.64 v 13.203 h 1.64 V 7.542 H 0 v 5.661 H 1.64 L 1.64,0 Z" /></g><g
           transform="translate(167.7925,507.6372)"
           id="g44"><path
             id="path46"
             style="fill:#004b93;fill-opacity:1;fill-rule:nonzero;stroke:none"
             d="m 0,0 v 13.203 h 7.421 v -1.38 H 1.64 V 7.421 H 6.421 V 6.042 H 1.64 V 1.38 H 7.602 V 0 Z" /></g><g
           transform="translate(178.5723,507.6372)"
           id="g48"><path
             id="path50"
             style="fill:#004b93;fill-opacity:1;fill-rule:nonzero;stroke:none"
             d="M 0,0 V 13.203 H 1.64 V 1.38 H 7.542 V 0 Z" /></g><g
           transform="translate(195.1333,518.5996)"
           id="g52"><path
             id="path54"
             style="fill:#004b93;fill-opacity:1;fill-rule:nonzero;stroke:none"
             d="m 0,0 c -0.68,0.4 -0.96,0.54 -1.38,0.68 -0.5,0.16 -1.301,0.28 -1.821,0.28 -1.5,0 -2.52,-0.74 -2.52,-1.86 0,-0.98 0.58,-1.48 3.261,-2.901 0.9,-0.48 1.6,-0.92 2.08,-1.34 0.64,-0.54 1.02,-1.441 1.02,-2.401 0,-2.26 -1.68,-3.681 -4.341,-3.681 -0.9,0 -1.74,0.16 -2.44,0.441 -0.5,0.199 -0.84,0.4 -1.701,0.98 l 0.841,1.3 c 0.74,-0.5 1.06,-0.68 1.52,-0.86 0.58,-0.22 1.22,-0.34 1.9,-0.34 1.56,0 2.501,0.74 2.501,2 0,0.38 -0.06,0.701 -0.2,0.94 -0.22,0.401 -0.6,0.781 -1.12,1.081 -0.221,0.12 -0.961,0.5 -2.201,1.18 -1.981,1.06 -2.82,2.101 -2.82,3.461 0,2.1 1.74,3.5 4.36,3.5 0.761,0 1.541,-0.1 2.221,-0.319 C -0.3,1.96 0.02,1.8 0.76,1.36 Z" /></g><g
           transform="translate(199.1519,507.6372)"
           id="g56"><path
             id="path58"
             style="fill:#004b93;fill-opacity:1;fill-rule:nonzero;stroke:none"
             d="m 0,0 v 13.203 h 7.421 v -1.38 H 1.64 V 7.421 H 6.421 V 6.042 H 1.64 V 1.38 H 7.602 V 0 Z" /></g><g
           transform="translate(218.7124,513.2983)"
           id="g60"><path
             id="path62"
             style="fill:#004b93;fill-opacity:1;fill-rule:nonzero;stroke:none"
             d="M 0,0 H -1.641 V -3.641 H 0 c 0.78,0 1.14,0.04 1.52,0.24 0.56,0.26 0.9,0.86 0.9,1.541 C 2.42,-0.66 1.56,0 0,0 M 0,5.542 H -1.641 V 2.141 h 1.501 c 1.42,0 2.18,0.6 2.18,1.72 0,1.06 -0.76,1.681 -2.04,1.681 M 1.1,-5.661 H -4.281 V 7.542 H 0.5 c 1.72,0 2.581,-0.22 3.301,-0.88 0.64,-0.56 1.04,-1.501 1.04,-2.361 0,-0.74 -0.28,-1.52 -0.76,-2.08 C 3.5,1.561 2.96,1.32 1.92,1.26 3.921,1.22 5.181,-0.08 5.181,-2.14 5.181,-4.421 3.741,-5.661 1.1,-5.661" /></g><g
           transform="translate(226.3711,507.6372)"
           id="g64"><path
             id="path66"
             style="fill:#004b93;fill-opacity:1;fill-rule:nonzero;stroke:none"
             d="m 0,0 v 13.203 h 8.042 v -2.14 H 2.521 V 7.802 H 7.042 V 5.661 H 2.521 V 2.141 H 8.302 V 0 Z" /></g><g
           transform="translate(241.312,518.6997)"
           id="g68"><path
             id="path70"
             style="fill:#004b93;fill-opacity:1;fill-rule:nonzero;stroke:none"
             d="M 0,0 H -1.641 V -3.641 H 0 c 1.6,0 2.3,0.56 2.3,1.88 C 2.3,-0.5 1.64,0 0,0 m 2.641,-11.063 -3.021,5.282 h -1.261 v -5.282 h -2.52 V 2.14 H 0.24 c 1.92,0 2.801,-0.24 3.581,-0.98 0.72,-0.66 1.08,-1.62 1.08,-2.861 0,-1.02 -0.24,-1.84 -0.72,-2.48 -0.5,-0.64 -0.96,-0.92 -2.061,-1.22 l 3.281,-5.662 z" /></g><g
           transform="translate(258.3931,507.8174)"
           id="g72"><path
             id="path74"
             style="fill:#004b93;fill-opacity:1;fill-rule:nonzero;stroke:none"
             d="m 0,0 c -1.4,-0.34 -2.22,-0.44 -3.321,-0.44 -4.381,0 -7.421,2.8 -7.421,6.881 0,2.001 0.76,3.741 2.18,5.041 1.361,1.241 2.881,1.761 5.162,1.761 0.96,0 1.92,-0.1 2.76,-0.301 C 0,12.783 0.4,12.643 1.32,12.243 l -0.6,-2.101 c -0.48,0.18 -0.84,0.3 -1.08,0.38 -0.94,0.32 -1.88,0.48 -2.721,0.48 -2.96,0 -5.021,-1.82 -5.021,-4.441 0,-2.7 2.261,-4.761 5.202,-4.761 0.6,0 0.94,0.06 1.72,0.28 V 5.721 H 1.34 V 0.32 C 0.74,0.18 0.3,0.06 0,0" /></g><g
           transform="translate(262.9907,507.6372)"
           id="g76"><path
             id="path78"
             style="fill:#004b93;fill-opacity:1;fill-rule:nonzero;stroke:none"
             d="m 0,0 v 13.203 h 8.042 v -2.14 H 2.521 V 7.802 H 7.042 V 5.661 H 2.521 V 2.141 H 8.302 V 0 Z" /></g><g
           transform="translate(282.5728,507.5171)"
           id="g80"><path
             id="path82"
             style="fill:#004b93;fill-opacity:1;fill-rule:nonzero;stroke:none"
             d="m 0,0 -5.661,8.542 c -0.04,0.06 -0.141,0.24 -0.28,0.52 -0.101,0.16 -0.141,0.26 -0.161,0.28 -0.08,0.16 -0.12,0.24 -0.179,0.46 V 0.12 h -2.402 v 13.203 h 2.902 L -0.24,4.641 c 0.019,-0.04 0.08,-0.14 0.139,-0.28 C -0.04,4.221 0,4.141 0.02,4.101 l 0.12,-0.34 0.12,-0.24 v 9.802 H 2.641 V 0 Z" /></g><g
           transform="translate(158.1479,495.1372)"
           id="g84"><path
             id="path86"
             style="fill:#004b93;fill-opacity:1;fill-rule:nonzero;stroke:none"
             d="M 0,0 V 3.622 H -4.666 V 0 h -0.983 v 7.916 h 0.983 V 4.521 H 0 V 7.916 H 0.983 V 0 Z" /></g><g
           transform="translate(164.186,497.6196)"
           id="g88"><path
             id="path90"
             style="fill:#004b93;fill-opacity:1;fill-rule:nonzero;stroke:none"
             d="m 0,0 -2.039,-0.527 c -0.132,-0.252 -0.156,-0.372 -0.156,-0.588 0,-0.432 0.288,-0.708 0.732,-0.708 0.407,0 0.683,0.132 1.463,0.696 z m 1.139,-2.638 c -0.743,0.048 -1.007,0.24 -1.056,0.755 -0.275,-0.24 -0.395,-0.336 -0.575,-0.431 -0.336,-0.192 -0.768,-0.312 -1.152,-0.312 -0.875,0 -1.451,0.563 -1.451,1.427 0,0.791 0.42,1.319 1.212,1.511 L 0,0.756 v 0.983 c 0,0.444 -0.336,0.672 -1.032,0.672 -0.563,0 -0.827,-0.156 -0.827,-0.468 0,-0.06 0.012,-0.108 0.048,-0.204 L -2.723,1.547 c -0.084,0.144 -0.096,0.204 -0.096,0.336 0,0.72 0.792,1.212 1.955,1.212 1.092,0 1.775,-0.516 1.775,-1.356 v -2.938 -0.396 c 0.024,-0.144 0.168,-0.24 0.444,-0.288 z" /></g><g
           transform="translate(170.749,495.1372)"
           id="g92"><path
             id="path94"
             style="fill:#004b93;fill-opacity:1;fill-rule:nonzero;stroke:none"
             d="m 0,0 v 1.127 c -0.635,-0.875 -1.343,-1.295 -2.159,-1.295 -0.947,0 -1.451,0.528 -1.451,1.523 v 4.078 h 0.9 v -3.85 c 0,-0.671 0.191,-0.947 0.647,-0.947 0.576,0 1.439,0.612 2.063,1.475 V 5.433 H 0.912 L 0.912,0 Z" /></g><g
           transform="translate(176.7974,495.1372)"
           id="g96"><path
             id="path98"
             style="fill:#004b93;fill-opacity:1;fill-rule:nonzero;stroke:none"
             d="M 0,0 -2.243,2.95 0,5.433 H 1.175 L -1.14,2.938 1.187,0 Z m -3.167,8.743 h 0.899 V 0 h -0.899 z" /></g><g
           transform="translate(181.1177,499.8984)"
           id="g100"><path
             id="path102"
             style="fill:#004b93;fill-opacity:1;fill-rule:nonzero;stroke:none"
             d="M 0,0 C -0.756,0 -1.283,-0.456 -1.487,-1.295 H 1.175 C 1.163,-0.456 0.744,0 0,0 m -1.559,-1.967 c 0,-1.319 0.671,-2.123 1.775,-2.123 0.479,0 0.827,0.132 1.415,0.54 l 0.36,-0.707 c -0.804,-0.504 -1.26,-0.66 -1.967,-0.66 -1.511,0 -2.531,1.151 -2.531,2.866 0,1.727 1.02,2.867 2.567,2.867 1.271,0 2.099,-0.9 2.099,-2.255 v -0.528 z" /></g><path
           id="path104"
           style="fill:#004b93;fill-opacity:1;fill-rule:nonzero;stroke:none"
           d="m 184.707,503.88 h 0.899 v -8.743 h -0.899 z" /><g
           transform="translate(190.3335,497.6196)"
           id="g106"><path
             id="path108"
             style="fill:#004b93;fill-opacity:1;fill-rule:nonzero;stroke:none"
             d="m 0,0 -2.039,-0.527 c -0.132,-0.252 -0.156,-0.372 -0.156,-0.588 0,-0.432 0.288,-0.708 0.732,-0.708 0.407,0 0.683,0.132 1.463,0.696 z m 1.139,-2.638 c -0.743,0.048 -1.007,0.24 -1.056,0.755 -0.275,-0.24 -0.395,-0.336 -0.575,-0.431 -0.336,-0.192 -0.768,-0.312 -1.152,-0.312 -0.875,0 -1.451,0.563 -1.451,1.427 0,0.791 0.42,1.319 1.212,1.511 L 0,0.756 v 0.983 c 0,0.444 -0.336,0.672 -1.032,0.672 -0.563,0 -0.827,-0.156 -0.827,-0.468 0,-0.06 0.012,-0.108 0.048,-0.204 L -2.723,1.547 c -0.084,0.144 -0.096,0.204 -0.096,0.336 0,0.72 0.792,1.212 1.955,1.212 1.092,0 1.775,-0.516 1.775,-1.356 v -2.938 -0.396 c 0.024,-0.144 0.168,-0.24 0.444,-0.288 z" /></g><g
           transform="translate(196.9565,495.1372)"
           id="g110"><path
             id="path112"
             style="fill:#004b93;fill-opacity:1;fill-rule:nonzero;stroke:none"
             d="m 0,0 v 3.85 c 0,0.359 -0.024,0.48 -0.084,0.635 -0.084,0.181 -0.3,0.288 -0.552,0.288 -0.551,0 -1.139,-0.407 -2.086,-1.451 V 0 h -0.9 v 5.433 h 0.9 v -1.14 c 0.371,0.42 0.479,0.528 0.743,0.744 0.408,0.348 0.948,0.54 1.452,0.54 0.959,0 1.426,-0.492 1.426,-1.511 L 0.899,0 Z" /></g><g
           transform="translate(203.4248,498.6753)"
           id="g114"><path
             id="path116"
             style="fill:#004b93;fill-opacity:1;fill-rule:nonzero;stroke:none"
             d="m 0,0 c 0,0.42 -0.024,0.54 -0.108,0.72 -0.168,0.3 -0.54,0.455 -1.091,0.455 -1.152,0 -1.895,-0.827 -1.895,-2.134 0,-1.092 0.611,-1.883 1.451,-1.883 0.324,0 0.72,0.143 1.055,0.371 0.204,0.156 0.336,0.276 0.588,0.588 z m 0,-3.538 v 0.684 c -0.48,-0.54 -1.115,-0.84 -1.799,-0.84 -1.331,0 -2.267,1.115 -2.267,2.722 0,1.752 1.164,3.011 2.771,3.011 0.575,0 0.947,-0.108 1.295,-0.372 v 3.538 h 0.912 v -8.743 z" /></g><g
           transform="translate(212.9043,495.1372)"
           id="g118"><path
             id="path120"
             style="fill:#004b93;fill-opacity:1;fill-rule:nonzero;stroke:none"
             d="m 0,0 v 1.127 c -0.635,-0.875 -1.343,-1.295 -2.159,-1.295 -0.947,0 -1.451,0.528 -1.451,1.523 v 4.078 h 0.9 v -3.85 c 0,-0.671 0.191,-0.947 0.647,-0.947 0.576,0 1.439,0.612 2.063,1.475 V 5.433 H 0.912 L 0.912,0 Z" /></g><g
           transform="translate(219.4561,495.1372)"
           id="g122"><path
             id="path124"
             style="fill:#004b93;fill-opacity:1;fill-rule:nonzero;stroke:none"
             d="m 0,0 v 3.85 c 0,0.359 -0.024,0.48 -0.084,0.635 -0.084,0.181 -0.3,0.288 -0.552,0.288 -0.551,0 -1.139,-0.407 -2.086,-1.451 V 0 h -0.9 v 5.433 h 0.9 v -1.14 c 0.371,0.42 0.479,0.528 0.743,0.744 0.408,0.348 0.948,0.54 1.451,0.54 0.96,0 1.427,-0.492 1.427,-1.511 V 0 Z" /></g><path
           id="path126"
           style="fill:#004b93;fill-opacity:1;fill-rule:nonzero;stroke:none"
           d="m 222.374,500.57 h 0.9 v -5.433 h -0.9 z m 0.456,1.307 c -0.324,0 -0.588,0.265 -0.588,0.588 0,0.324 0.264,0.588 0.588,0.588 0.324,0 0.587,-0.264 0.587,-0.588 0,-0.323 -0.263,-0.588 -0.587,-0.588" /><g
           transform="translate(227.377,494.9814)"
           id="g128"><path
             id="path130"
             style="fill:#004b93;fill-opacity:1;fill-rule:nonzero;stroke:none"
             d="m 0,0 h -0.828 l -2.038,5.589 h 0.983 l 1.499,-4.402 0.024,-0.216 0.012,0.204 1.475,4.414 h 0.984 z" /></g><g
           transform="translate(232.6929,499.8984)"
           id="g132"><path
             id="path134"
             style="fill:#004b93;fill-opacity:1;fill-rule:nonzero;stroke:none"
             d="M 0,0 C -0.756,0 -1.283,-0.456 -1.487,-1.295 H 1.175 C 1.163,-0.456 0.744,0 0,0 m -1.559,-1.967 c 0,-1.319 0.671,-2.123 1.775,-2.123 0.479,0 0.827,0.132 1.415,0.54 l 0.36,-0.707 c -0.804,-0.504 -1.26,-0.66 -1.967,-0.66 -1.511,0 -2.531,1.151 -2.531,2.866 0,1.727 1.02,2.867 2.567,2.867 1.271,0 2.099,-0.9 2.099,-2.255 v -0.528 z" /></g><g
           transform="translate(238.8965,499.5869)"
           id="g136"><path
             id="path138"
             style="fill:#004b93;fill-opacity:1;fill-rule:nonzero;stroke:none"
             d="m 0,0 c -0.18,0.156 -0.276,0.216 -0.384,0.216 -0.336,0 -0.767,-0.492 -1.283,-1.427 V -4.45 h -0.9 v 5.433 h 0.9 V 0 c 0.671,0.863 1.007,1.127 1.415,1.127 0.204,0 0.456,-0.132 0.696,-0.372 z" /></g><g
           transform="translate(242.0889,494.9814)"
           id="g140"><path
             id="path142"
             style="fill:#004b93;fill-opacity:1;fill-rule:nonzero;stroke:none"
             d="M 0,0 C -0.228,0 -0.48,0.024 -0.756,0.072 -1.271,0.168 -1.5,0.252 -2.039,0.527 l 0.372,0.756 c 0.18,-0.096 0.312,-0.168 0.408,-0.216 0.384,-0.18 0.863,-0.299 1.247,-0.299 0.552,0 0.959,0.299 0.959,0.719 0,0.132 -0.048,0.288 -0.108,0.372 -0.215,0.312 -0.467,0.468 -1.439,0.863 -1.055,0.444 -1.415,0.816 -1.415,1.476 0,0.947 0.791,1.535 2.063,1.535 0.228,0 0.468,-0.025 0.696,-0.06 C 1.151,5.589 1.343,5.517 1.799,5.265 L 1.355,4.533 C 1.007,4.749 0.852,4.821 0.576,4.893 0.36,4.953 0.156,4.989 -0.048,4.989 -0.66,4.989 -1.056,4.713 -1.056,4.306 -1.056,4.173 -1.007,4.054 -0.923,3.97 -0.708,3.754 -0.564,3.67 0.419,3.262 1.571,2.782 1.895,2.411 1.895,1.559 1.895,0.587 1.187,0 0,0" /></g><path
           id="path144"
           style="fill:#004b93;fill-opacity:1;fill-rule:nonzero;stroke:none"
           d="m 245.737,500.57 h 0.9 v -5.433 h -0.9 z m 0.456,1.307 c -0.323,0 -0.588,0.265 -0.588,0.588 0,0.324 0.265,0.588 0.588,0.588 0.324,0 0.588,-0.264 0.588,-0.588 0,-0.323 -0.264,-0.588 -0.588,-0.588" /><g
           transform="translate(249.8047,494.9814)"
           id="g146"><path
             id="path148"
             style="fill:#004b93;fill-opacity:1;fill-rule:nonzero;stroke:none"
             d="m 0,0 c -0.624,0 -1.043,0.492 -1.043,1.211 v 3.622 h -0.912 v 0.528 l 0.912,0.228 v 1.583 h 0.899 V 5.589 H 1.295 V 4.833 H -0.144 V 1.739 l 0.012,-0.24 c 0.012,-0.168 0.012,-0.276 0.024,-0.336 0.012,-0.18 0.12,-0.264 0.312,-0.264 0.228,0 0.408,0.096 0.792,0.384 L 1.367,0.684 C 0.731,0.156 0.432,0 0,0" /></g><g
           transform="translate(254.4004,499.8984)"
           id="g150"><path
             id="path152"
             style="fill:#004b93;fill-opacity:1;fill-rule:nonzero;stroke:none"
             d="M 0,0 C -0.756,0 -1.283,-0.456 -1.487,-1.295 H 1.175 C 1.163,-0.456 0.744,0 0,0 m -1.559,-1.967 c 0,-1.319 0.671,-2.123 1.775,-2.123 0.479,0 0.827,0.132 1.415,0.54 l 0.36,-0.707 c -0.804,-0.504 -1.26,-0.66 -1.967,-0.66 -1.511,0 -2.531,1.151 -2.531,2.866 0,1.727 1.02,2.867 2.567,2.867 1.271,0 2.099,-0.9 2.099,-2.255 v -0.528 z" /></g><g
           transform="translate(259.1406,494.9814)"
           id="g154"><path
             id="path156"
             style="fill:#004b93;fill-opacity:1;fill-rule:nonzero;stroke:none"
             d="m 0,0 c -0.624,0 -1.043,0.492 -1.043,1.211 v 3.622 h -0.912 v 0.528 l 0.912,0.228 v 1.583 h 0.899 V 5.589 H 1.295 V 4.833 H -0.144 V 1.739 l 0.012,-0.24 c 0.012,-0.168 0.012,-0.276 0.024,-0.336 0.012,-0.18 0.12,-0.264 0.312,-0.264 0.228,0 0.408,0.096 0.792,0.384 L 1.367,0.684 C 0.731,0.156 0.432,0 0,0" /></g><g
           transform="translate(263.4604,494.9814)"
           id="g158"><path
             id="path160"
             style="fill:#004b93;fill-opacity:1;fill-rule:nonzero;stroke:none"
             d="m 0,0 c -0.228,0 -0.48,0.024 -0.756,0.072 -0.515,0.096 -0.743,0.18 -1.283,0.455 l 0.372,0.756 c 0.18,-0.096 0.312,-0.168 0.408,-0.216 0.384,-0.18 0.863,-0.299 1.247,-0.299 0.552,0 0.959,0.299 0.959,0.719 0,0.132 -0.048,0.288 -0.108,0.372 -0.215,0.312 -0.467,0.468 -1.439,0.863 -1.055,0.444 -1.415,0.816 -1.415,1.476 0,0.947 0.791,1.535 2.063,1.535 0.228,0 0.468,-0.025 0.696,-0.06 C 1.151,5.589 1.343,5.517 1.799,5.265 L 1.355,4.533 C 1.007,4.749 0.852,4.821 0.576,4.893 0.36,4.953 0.156,4.989 -0.048,4.989 -0.66,4.989 -1.056,4.713 -1.056,4.306 -1.056,4.173 -1.007,4.054 -0.924,3.97 -0.708,3.754 -0.564,3.67 0.42,3.262 1.571,2.782 1.895,2.411 1.895,1.559 1.895,0.587 1.188,0 0,0" /></g><g
           transform="translate(268.8237,494.9814)"
           id="g162"><path
             id="path164"
             style="fill:#004b93;fill-opacity:1;fill-rule:nonzero;stroke:none"
             d="m 0,0 c -0.228,0 -0.479,0.024 -0.755,0.072 -0.516,0.096 -0.744,0.18 -1.284,0.455 l 0.372,0.756 c 0.181,-0.096 0.313,-0.168 0.408,-0.216 0.384,-0.18 0.863,-0.299 1.247,-0.299 0.552,0 0.96,0.299 0.96,0.719 0,0.132 -0.048,0.288 -0.108,0.372 -0.216,0.312 -0.468,0.468 -1.44,0.863 -1.055,0.444 -1.415,0.816 -1.415,1.476 0,0.947 0.792,1.535 2.064,1.535 0.227,0 0.467,-0.025 0.695,-0.06 C 1.151,5.589 1.344,5.517 1.8,5.265 L 1.355,4.533 C 1.008,4.749 0.852,4.821 0.576,4.893 0.36,4.953 0.156,4.989 -0.048,4.989 c -0.611,0 -1.007,-0.276 -1.007,-0.683 0,-0.133 0.048,-0.252 0.132,-0.336 C -0.707,3.754 -0.563,3.67 0.42,3.262 1.571,2.782 1.896,2.411 1.896,1.559 1.896,0.587 1.188,0 0,0" /></g><g
           transform="translate(272.8931,501.8896)"
           id="g166"><path
             id="path168"
             style="fill:#004b93;fill-opacity:1;fill-rule:nonzero;stroke:none"
             d="m 0,0 c -0.324,0 -0.588,0.264 -0.588,0.587 0,0.324 0.264,0.588 0.588,0.588 0.324,0 0.588,-0.264 0.588,-0.588 C 0.588,0.264 0.324,0 0,0 m -0.156,-8.875 c -0.228,-0.384 -0.335,-0.54 -0.671,-0.948 l -0.6,0.504 c 0.407,0.564 0.516,0.732 0.696,1.103 0.204,0.408 0.288,0.816 0.288,1.392 v 5.505 H 0.456 V -7.652 C 0.204,-8.251 0.084,-8.479 -0.156,-8.875" /></g><g
           transform="translate(278.9761,495.1372)"
           id="g170"><path
             id="path172"
             style="fill:#004b93;fill-opacity:1;fill-rule:nonzero;stroke:none"
             d="m 0,0 v 1.127 c -0.636,-0.875 -1.344,-1.295 -2.159,-1.295 -0.947,0 -1.451,0.528 -1.451,1.523 v 4.078 h 0.899 v -3.85 c 0,-0.671 0.192,-0.947 0.648,-0.947 0.576,0 1.439,0.612 2.063,1.475 V 5.433 H 0.911 L 0.911,0 Z" /></g><g
           transform="translate(285.0239,495.1372)"
           id="g174"><path
             id="path176"
             style="fill:#004b93;fill-opacity:1;fill-rule:nonzero;stroke:none"
             d="M 0,0 -2.242,2.95 0,5.433 H 1.176 L -1.139,2.938 1.188,0 Z m -3.166,8.743 h 0.899 V 0 h -0.899 z" /></g><g
           transform="translate(289.3452,499.8984)"
           id="g178"><path
             id="path180"
             style="fill:#004b93;fill-opacity:1;fill-rule:nonzero;stroke:none"
             d="M 0,0 C -0.756,0 -1.283,-0.456 -1.487,-1.295 H 1.175 C 1.163,-0.456 0.743,0 0,0 m -1.56,-1.967 c 0,-1.319 0.672,-2.123 1.776,-2.123 0.479,0 0.827,0.132 1.415,0.54 l 0.36,-0.707 c -0.803,-0.504 -1.26,-0.66 -1.968,-0.66 -1.51,0 -2.53,1.151 -2.53,2.866 0,1.727 1.02,2.867 2.567,2.867 1.271,0 2.098,-0.9 2.098,-2.255 v -0.528 z" /></g><g
           transform="translate(296.4966,495.1372)"
           id="g182"><path
             id="path184"
             style="fill:#004b93;fill-opacity:1;fill-rule:nonzero;stroke:none"
             d="m 0,0 v 3.85 c 0,0.359 -0.013,0.48 -0.084,0.635 -0.084,0.181 -0.288,0.288 -0.54,0.288 -0.564,0 -1.151,-0.407 -2.087,-1.451 V 0 H -3.61 v 8.743 h 0.899 v -4.45 c 0.372,0.42 0.468,0.528 0.732,0.744 0.419,0.348 0.947,0.54 1.462,0.54 0.96,0 1.428,-0.492 1.428,-1.511 L 0.911,0 Z" /></g><g
           transform="translate(302.9766,495.1372)"
           id="g186"><path
             id="path188"
             style="fill:#004b93;fill-opacity:1;fill-rule:nonzero;stroke:none"
             d="m 0,0 v 1.127 c -0.637,-0.875 -1.344,-1.295 -2.16,-1.295 -0.947,0 -1.451,0.528 -1.451,1.523 v 4.078 h 0.9 v -3.85 c 0,-0.671 0.191,-0.947 0.647,-0.947 0.576,0 1.439,0.612 2.064,1.475 V 5.433 H 0.91 V 0 Z" /></g><g
           transform="translate(307.6211,494.9814)"
           id="g190"><path
             id="path192"
             style="fill:#004b93;fill-opacity:1;fill-rule:nonzero;stroke:none"
             d="M 0,0 C -0.229,0 -0.48,0.024 -0.756,0.072 -1.271,0.168 -1.5,0.252 -2.039,0.527 l 0.371,0.756 c 0.182,-0.096 0.313,-0.168 0.408,-0.216 0.385,-0.18 0.864,-0.299 1.248,-0.299 0.551,0 0.959,0.299 0.959,0.719 0,0.132 -0.047,0.288 -0.107,0.372 -0.217,0.312 -0.469,0.468 -1.44,0.863 -1.054,0.444 -1.416,0.816 -1.416,1.476 0,0.947 0.793,1.535 2.065,1.535 0.226,0 0.467,-0.025 0.695,-0.06 C 1.15,5.589 1.344,5.517 1.799,5.265 L 1.355,4.533 C 1.008,4.749 0.852,4.821 0.576,4.893 0.359,4.953 0.156,4.989 -0.049,4.989 -0.66,4.989 -1.055,4.713 -1.055,4.306 -1.055,4.173 -1.008,4.054 -0.924,3.97 -0.707,3.754 -0.564,3.67 0.42,3.262 1.57,2.782 1.895,2.411 1.895,1.559 1.895,0.587 1.188,0 0,0" /></g></g></g></g></svg>